<svg width="32" height="32" viewBox="0 0 32 32" fill="none" xmlns="http://www.w3.org/2000/svg">
    <rect opacity="0.1" width="32" height="32" rx="12" fill="white"/>
    <path d="M7.97485 15.2725V24.1C7.97485 24.595 8.37985 25 8.87485 25H23.1249C23.6274 25 24.0249 24.595 24.0249 24.1V15.2725H7.97485ZM18.1891 18.0977H13.8106C13.4079 18.0977 13.0809 17.7707 13.0809 17.368C13.0809 16.9652 13.4079 16.6382 13.8106 16.6382H18.1891C18.5919 16.6382 18.9189 16.9652 18.9189 17.368C18.9189 17.7707 18.5919 18.0977 18.1891 18.0977Z" fill="white"/>
    <path d="M24.625 13.7737H7.375C7.168 13.7737 7 13.6057 7 13.3987V10.3687H25V13.3994C25 13.6064 24.832 13.7737 24.625 13.7737Z" fill="white"/>
    <path d="M22.324 7H9.676L7 10.369H25L22.324 7Z" fill="white"/>
</svg>
