<svg width="64" height="24" viewBox="0 0 64 24" fill="none" xmlns="http://www.w3.org/2000/svg">
<rect width="64" height="24" rx="4" fill="white"/>
<path d="M26.4941 16.9882C29.2659 16.9882 31.5068 14.7556 31.5068 11.9941C31.5068 9.23267 29.2659 7 26.4941 7C23.7224 7 21.4814 9.23267 21.4814 11.9941C21.4814 14.7556 23.7224 16.9882 26.4941 16.9882ZM26.4941 9.86721C27.6736 9.86721 28.6289 10.819 28.6289 11.9941C28.6289 13.1692 27.6736 14.121 26.4941 14.121C25.3147 14.121 24.3593 13.1692 24.3593 11.9941C24.3593 10.819 25.3147 9.86721 26.4941 9.86721Z" fill="#A50064"/>
<path d="M51.4014 7C48.6296 7 46.3887 9.23267 46.3887 11.9941C46.3887 14.7556 48.6296 16.9882 51.4014 16.9882C54.1731 16.9882 56.414 14.7556 56.414 11.9941C56.414 9.23267 54.1731 7 51.4014 7ZM51.4014 14.121C50.2219 14.121 49.2665 13.1692 49.2665 11.9941C49.2665 10.819 50.2219 9.86722 51.4014 9.86722C52.5808 9.86722 53.5362 10.819 53.5362 11.9941C53.5362 13.1692 52.5808 14.121 51.4014 14.121Z" fill="#A50064"/>
<path d="M41.1879 7C40.3387 7 39.5603 7.28202 38.9351 7.75206C38.31 7.28202 37.5198 7 36.6824 7C34.6065 7 32.9199 8.68038 32.9199 10.7485V17H35.7978V10.7133C35.7978 10.2432 36.1752 9.86722 36.647 9.86722C37.1188 9.86722 37.4962 10.2432 37.4962 10.7133V16.9882H40.3741V10.7133C40.3741 10.2432 40.7515 9.86722 41.2233 9.86722C41.6951 9.86722 42.0725 10.2432 42.0725 10.7133V16.9882H44.9386V10.7368C44.9386 8.68038 43.2638 7 41.1879 7Z" fill="#A50064"/>
<path d="M16.2798 7C15.4306 7 14.6521 7.28202 14.027 7.75206C13.4019 7.28202 12.6117 7 11.7743 7C9.68662 7 8 8.68038 8 10.7485V16.9882H10.8779V10.7133C10.8779 10.2432 11.2553 9.86721 11.7271 9.86721C12.1989 9.86721 12.5763 10.2432 12.5763 10.7133V16.9882H15.4542V10.7133C15.4542 10.2432 15.8316 9.86721 16.3034 9.86721C16.7752 9.86721 17.1526 10.2432 17.1526 10.7133V16.9882H20.0305V10.7485C20.0305 8.68038 18.3556 7 16.2798 7Z" fill="#A50064"/>
</svg>
