<svg width="200" height="200" viewBox="0 0 200 200" fill="none" xmlns="http://www.w3.org/2000/svg">
<path opacity="0.2" d="M159.085 182.799C159.085 178.416 132.631 166.921 100 166.921C67.3692 166.921 40.9155 178.416 40.9155 182.799H159.085Z" fill="url(#paint0_linear_2159_757)"/>
<g opacity="0.3">
<path d="M94.1963 48.9665C94.1963 42.2254 88.7918 36.7468 82.0798 36.625C82.2518 35.7834 82.3444 34.9126 82.3444 34.0207C82.3444 26.9275 76.5932 21.1763 69.5 21.1763C64.7307 21.1763 60.5727 23.778 58.3574 27.6368C56.9918 27.0387 55.4858 26.7052 53.9004 26.7052C49.1761 26.7052 45.1452 29.6483 43.528 33.801C42.8108 33.6978 42.0803 33.6422 41.3339 33.6422C32.8724 33.6422 26.0122 40.5024 26.0122 48.9639C26.0122 57.4254 32.8724 64.2856 41.3339 64.2856C44.772 64.2856 47.9454 63.1528 50.5021 61.2419H80.5261C80.9602 61.2869 81.3996 61.3134 81.8468 61.3134C82.2941 61.3134 82.7335 61.2895 83.1675 61.2419C89.3687 60.5855 94.1963 55.3398 94.1963 48.9665Z" fill="url(#paint1_linear_2159_757)"/>
<path d="M173.987 54.1115C173.987 44.8401 166.47 37.3235 157.199 37.3235C156.005 37.3235 154.84 37.4505 153.718 37.6861C151.765 26.5038 142.015 18 130.271 18C121.751 18 114.282 22.4782 110.074 29.2061C109.267 29.0923 108.444 29.0288 107.605 29.0288C100.655 29.0288 94.6493 33.0729 91.8121 38.9353C91.2377 38.8798 90.6581 38.848 90.0705 38.848C80.3069 38.848 72.3906 46.7643 72.3906 56.5279C72.3906 66.2916 80.3069 74.2078 90.0705 74.2078C93.9929 74.2078 97.6136 72.9295 100.546 70.7671H155.129C155.806 70.8518 156.497 70.8968 157.199 70.8968C157.892 70.8968 158.575 70.8492 159.247 70.7671H159.332V70.7565C167.595 69.7111 173.987 62.6603 173.987 54.1115Z" fill="url(#paint2_linear_2159_757)"/>
</g>
<path d="M78.4108 105.343C76.566 109.083 75.5259 113.289 75.5259 117.738C75.5259 133.242 88.0924 145.809 103.597 145.809C119.101 145.809 131.668 133.242 131.668 117.738C131.668 102.233 119.101 89.667 103.597 89.667C92.5468 89.667 82.9896 96.0588 78.4108 105.343Z" fill="url(#paint3_linear_2159_757)"/>
<mask id="mask0_2159_757" style="mask-type:luminance" maskUnits="userSpaceOnUse" x="75" y="89" width="57" height="57">
<path d="M103.6 145.827C119.103 145.827 131.671 133.259 131.671 117.756C131.671 102.253 119.103 89.6855 103.6 89.6855C88.097 89.6855 75.5293 102.253 75.5293 117.756C75.5293 133.259 88.097 145.827 103.6 145.827Z" fill="white"/>
</mask>
<g mask="url(#mask0_2159_757)">
<path d="M125.821 140.553C130.477 140.553 134.251 136.779 134.251 132.123C134.251 127.467 130.477 123.693 125.821 123.693C121.166 123.693 117.392 127.467 117.392 132.123C117.392 136.779 121.166 140.553 125.821 140.553Z" fill="#E34E0B"/>
</g>
<mask id="mask1_2159_757" style="mask-type:luminance" maskUnits="userSpaceOnUse" x="75" y="89" width="57" height="57">
<path d="M103.6 145.827C119.103 145.827 131.671 133.259 131.671 117.756C131.671 102.253 119.103 89.6855 103.6 89.6855C88.097 89.6855 75.5293 102.253 75.5293 117.756C75.5293 133.259 88.097 145.827 103.6 145.827Z" fill="white"/>
</mask>
<g mask="url(#mask1_2159_757)">
<path d="M115.426 101.262C116.991 101.262 118.261 99.9934 118.261 98.4279C118.261 96.8624 116.991 95.5933 115.426 95.5933C113.86 95.5933 112.591 96.8624 112.591 98.4279C112.591 99.9934 113.86 101.262 115.426 101.262Z" fill="#F27A44"/>
</g>
<mask id="mask2_2159_757" style="mask-type:luminance" maskUnits="userSpaceOnUse" x="75" y="89" width="57" height="57">
<path d="M103.6 145.827C119.103 145.827 131.671 133.259 131.671 117.756C131.671 102.253 119.103 89.6855 103.6 89.6855C88.097 89.6855 75.5293 102.253 75.5293 117.756C75.5293 133.259 88.097 145.827 103.6 145.827Z" fill="white"/>
</mask>
<g mask="url(#mask2_2159_757)">
<path d="M98.1822 148.08C100.248 148.08 101.922 146.405 101.922 144.34C101.922 142.274 100.248 140.6 98.1822 140.6C96.1167 140.6 94.4424 142.274 94.4424 144.34C94.4424 146.405 96.1167 148.08 98.1822 148.08Z" fill="#E34E0B"/>
</g>
<mask id="mask3_2159_757" style="mask-type:luminance" maskUnits="userSpaceOnUse" x="75" y="89" width="57" height="57">
<path d="M103.6 145.827C119.103 145.827 131.671 133.259 131.671 117.756C131.671 102.253 119.103 89.6855 103.6 89.6855C88.097 89.6855 75.5293 102.253 75.5293 117.756C75.5293 133.259 88.097 145.827 103.6 145.827Z" fill="white"/>
</mask>
<g mask="url(#mask3_2159_757)">
<path d="M78.5672 104.044C77.3338 104.044 76.1746 104.34 75.1397 104.851C72.583 106.116 70.8203 108.744 70.8203 111.788C70.8203 116.065 74.2875 119.532 78.5645 119.532C82.8151 119.532 86.2611 116.108 86.3061 111.868C86.3061 111.841 86.3114 111.815 86.3114 111.788C86.3114 107.511 82.8442 104.044 78.5672 104.044Z" fill="#FFA35C"/>
</g>
<mask id="mask4_2159_757" style="mask-type:luminance" maskUnits="userSpaceOnUse" x="75" y="89" width="57" height="57">
<path d="M103.6 145.827C119.103 145.827 131.671 133.259 131.671 117.756C131.671 102.253 119.103 89.6855 103.6 89.6855C88.097 89.6855 75.5293 102.253 75.5293 117.756C75.5293 133.259 88.097 145.827 103.6 145.827Z" fill="white"/>
</mask>
<g mask="url(#mask4_2159_757)">
<path d="M104.079 117.222C106.452 117.222 108.375 115.299 108.375 112.926C108.375 110.554 106.452 108.631 104.079 108.631C101.707 108.631 99.7837 110.554 99.7837 112.926C99.7837 115.299 101.707 117.222 104.079 117.222Z" fill="#FF8A30"/>
</g>
<mask id="mask5_2159_757" style="mask-type:luminance" maskUnits="userSpaceOnUse" x="75" y="89" width="57" height="57">
<path d="M103.6 145.827C119.103 145.827 131.671 133.259 131.671 117.756C131.671 102.253 119.103 89.6855 103.6 89.6855C88.097 89.6855 75.5293 102.253 75.5293 117.756C75.5293 133.259 88.097 145.827 103.6 145.827Z" fill="white"/>
</mask>
<g mask="url(#mask5_2159_757)">
<path d="M78.5681 104.044C77.3347 104.044 76.1755 104.34 75.1406 104.851C80.5399 104.298 83.9382 105.862 86.307 111.868C86.307 111.841 86.3123 111.815 86.3123 111.788C86.3123 107.511 82.8451 104.044 78.5681 104.044Z" fill="#FA8E3C"/>
</g>
<mask id="mask6_2159_757" style="mask-type:luminance" maskUnits="userSpaceOnUse" x="75" y="89" width="57" height="57">
<path d="M103.6 145.827C119.103 145.827 131.671 133.259 131.671 117.756C131.671 102.253 119.103 89.6855 103.6 89.6855C88.097 89.6855 75.5293 102.253 75.5293 117.756C75.5293 133.259 88.097 145.827 103.6 145.827Z" fill="white"/>
</mask>
<g mask="url(#mask6_2159_757)">
<path d="M115.143 95.6089C113.711 95.7518 112.591 96.9587 112.591 98.4276C112.591 98.7637 112.652 99.084 112.761 99.3831C112.92 96.9058 113.88 96.2759 115.143 95.6089Z" fill="#F26729"/>
</g>
<mask id="mask7_2159_757" style="mask-type:luminance" maskUnits="userSpaceOnUse" x="75" y="89" width="57" height="57">
<path d="M103.6 145.827C119.103 145.827 131.671 133.259 131.671 117.756C131.671 102.253 119.103 89.6855 103.6 89.6855C88.097 89.6855 75.5293 102.253 75.5293 117.756C75.5293 133.259 88.097 145.827 103.6 145.827Z" fill="white"/>
</mask>
<g mask="url(#mask7_2159_757)">
<path d="M129.32 124.455C128.254 123.968 127.071 123.696 125.821 123.696C121.166 123.696 117.392 127.47 117.392 132.126C117.392 133.568 117.754 134.923 118.392 136.111C117.026 126.888 123.196 123.693 129.32 124.455Z" fill="#D4490B"/>
</g>
<mask id="mask8_2159_757" style="mask-type:luminance" maskUnits="userSpaceOnUse" x="75" y="89" width="57" height="57">
<path d="M103.6 145.827C119.103 145.827 131.671 133.259 131.671 117.756C131.671 102.253 119.103 89.6855 103.6 89.6855C88.097 89.6855 75.5293 102.253 75.5293 117.756C75.5293 133.259 88.097 145.827 103.6 145.827Z" fill="white"/>
</mask>
<g mask="url(#mask8_2159_757)">
<path d="M97.3138 140.706C95.6676 141.098 94.4448 142.575 94.4448 144.34C94.4448 144.647 94.4845 144.943 94.556 145.227C94.9503 143.432 95.8317 141.759 97.3138 140.706Z" fill="#D4490B"/>
</g>
<mask id="mask9_2159_757" style="mask-type:luminance" maskUnits="userSpaceOnUse" x="75" y="89" width="57" height="57">
<path d="M103.6 145.827C119.103 145.827 131.671 133.259 131.671 117.756C131.671 102.253 119.103 89.6855 103.6 89.6855C88.097 89.6855 75.5293 102.253 75.5293 117.756C75.5293 133.259 88.097 145.827 103.6 145.827Z" fill="white"/>
</mask>
<g mask="url(#mask9_2159_757)">
<path d="M103.402 108.689C101.351 109.015 99.7837 110.785 99.7837 112.926C99.7837 113.231 99.8155 113.53 99.8763 113.816C100.247 111.6 101.573 109.639 103.402 108.689Z" fill="#FF7D19"/>
</g>
<path d="M141.455 101.675C140.013 98.2823 134.645 97.356 125.498 98.9202C125.133 98.9837 124.937 99.0181 124.561 99.0895C125.496 100.114 126.131 101.016 126.864 102.049C135.032 100.778 138.028 102.067 138.411 102.97C138.816 103.925 137.718 106.892 131.025 111.947C124.995 116.499 116.396 121.248 106.813 125.321C97.2289 129.392 87.8411 132.284 80.38 133.465C72.0932 134.775 69.1951 133.507 68.7902 132.549C68.4064 131.644 69.4836 128.632 76.14 123.601C76.14 123.601 75.6769 121.375 75.6133 119.906C75.3698 120.086 75.0655 120.279 74.8379 120.446C67.3636 125.943 64.3067 130.45 65.7465 133.841C66.7337 136.164 69.5709 137.332 74.2106 137.332C76.1321 137.332 78.3633 137.13 80.8961 136.731C88.6166 135.511 98.2796 132.538 108.107 128.365C117.934 124.191 126.779 119.297 133.017 114.586C140.01 109.306 142.85 104.96 141.455 101.675Z" fill="url(#paint4_linear_2159_757)"/>
<g opacity="0.8">
<path d="M54.2996 128.51L51.1235 127.491L59.1113 127.213L62.2873 128.232L54.2996 128.51Z" fill="url(#paint5_linear_2159_757)"/>
<path d="M41.5131 153.603L38.3345 152.584L38.2842 140.367L41.4602 141.384L41.5131 153.603Z" fill="url(#paint6_linear_2159_757)"/>
<path d="M41.4105 128.96L38.2318 127.941L38.1074 97.9277L41.2835 98.9467L41.4105 128.96Z" fill="url(#paint7_linear_2159_757)"/>
<path d="M17.6218 129.791L14.4458 128.772L38.2316 127.941L41.4103 128.96L17.6218 129.791Z" fill="url(#paint8_linear_2159_757)"/>
<path d="M54.109 82.9101L50.933 81.8911L33.9544 82.484L0 126.853L0.0608728 141.701L3.2369 142.72L3.17603 127.872L37.1305 83.5029L54.109 82.9101Z" fill="url(#paint9_linear_2159_757)"/>
<path d="M54.109 82.9102L54.2996 128.51L62.2873 128.232L62.3402 140.656L54.3525 140.934L54.4028 153.151L41.5134 153.601L41.4631 141.384L3.23959 142.717L3.17871 127.87L37.1331 83.5004L54.109 82.9102ZM41.4102 128.96L41.2858 98.9465L17.6244 129.791L41.4102 128.96Z" fill="url(#paint10_linear_2159_757)"/>
</g>
<g opacity="0.8">
<path d="M191.959 128.51L188.783 127.491L196.773 127.213L199.949 128.232L191.959 128.51Z" fill="url(#paint11_linear_2159_757)"/>
<path d="M179.17 153.603L175.994 152.584L175.941 140.367L179.117 141.384L179.17 153.603Z" fill="url(#paint12_linear_2159_757)"/>
<path d="M179.067 128.96L175.891 127.941L175.764 97.9277L178.94 98.9467L179.067 128.96Z" fill="url(#paint13_linear_2159_757)"/>
<path d="M155.282 129.791L152.105 128.772L175.891 127.941L179.067 128.96L155.282 129.791Z" fill="url(#paint14_linear_2159_757)"/>
<path d="M191.769 82.9101L188.593 81.8911L171.614 82.484L137.66 126.853L137.723 141.701L140.899 142.72L140.836 127.872L174.79 83.5029L191.769 82.9101Z" fill="url(#paint15_linear_2159_757)"/>
<path d="M191.959 128.51L199.947 128.232L200 140.656L192.012 140.934L192.062 153.151L179.168 153.601L179.117 141.384L140.896 142.718L140.835 127.87L174.79 83.5006L191.768 82.9077L191.959 128.51ZM179.067 128.96L178.943 98.9467L155.284 129.791L179.067 128.96Z" fill="url(#paint16_linear_2159_757)"/>
</g>
<defs>
<linearGradient id="paint0_linear_2159_757" x1="100" y1="166.923" x2="100" y2="182.8" gradientUnits="userSpaceOnUse">
<stop stop-color="#E8E8E8"/>
<stop offset="0.6" stop-color="#F8F8F8" stop-opacity="0.5"/>
<stop offset="1" stop-color="white" stop-opacity="0"/>
</linearGradient>
<linearGradient id="paint1_linear_2159_757" x1="60.1062" y1="21.178" x2="60.1062" y2="64.2886" gradientUnits="userSpaceOnUse">
<stop stop-color="#E8E8E8"/>
<stop offset="0.6" stop-color="#F9F9F9" stop-opacity="0.1"/>
<stop offset="1" stop-color="white" stop-opacity="0"/>
</linearGradient>
<linearGradient id="paint2_linear_2159_757" x1="123.188" y1="18.0017" x2="123.188" y2="74.2119" gradientUnits="userSpaceOnUse">
<stop stop-color="#E8E8E8"/>
<stop offset="0.8" stop-color="#F6F6F6" stop-opacity="0.1"/>
<stop offset="1" stop-color="white" stop-opacity="0"/>
</linearGradient>
<linearGradient id="paint3_linear_2159_757" x1="83.1897" y1="99.7238" x2="135.11" y2="145.554" gradientUnits="userSpaceOnUse">
<stop stop-color="#FEE38D"/>
<stop offset="0.8471" stop-color="#F25C19"/>
</linearGradient>
<linearGradient id="paint4_linear_2159_757" x1="76.405" y1="144.95" x2="130.79" y2="90.5642" gradientUnits="userSpaceOnUse">
<stop offset="0.1788" stop-color="#FFA533"/>
<stop offset="0.6816" stop-color="#F25C19"/>
</linearGradient>
<linearGradient id="paint5_linear_2159_757" x1="51.1234" y1="127.862" x2="62.2879" y2="127.862" gradientUnits="userSpaceOnUse">
<stop stop-color="#A5A5A5"/>
<stop offset="1" stop-color="#BFBFBF"/>
</linearGradient>
<linearGradient id="paint6_linear_2159_757" x1="39.8982" y1="140.367" x2="39.8982" y2="153.603" gradientUnits="userSpaceOnUse">
<stop stop-color="#A5A5A5"/>
<stop offset="1" stop-color="#BFBFBF"/>
</linearGradient>
<linearGradient id="paint7_linear_2159_757" x1="39.7583" y1="97.9281" x2="39.7583" y2="128.96" gradientUnits="userSpaceOnUse">
<stop stop-color="#A5A5A5"/>
<stop offset="1" stop-color="#BFBFBF"/>
</linearGradient>
<linearGradient id="paint8_linear_2159_757" x1="14.4447" y1="128.867" x2="41.4091" y2="128.867" gradientUnits="userSpaceOnUse">
<stop stop-color="#A5A5A5"/>
<stop offset="1" stop-color="#BFBFBF"/>
</linearGradient>
<linearGradient id="paint9_linear_2159_757" x1="14.7054" y1="121.926" x2="40.2249" y2="86.7035" gradientUnits="userSpaceOnUse">
<stop stop-color="#A5A5A5"/>
<stop offset="1" stop-color="#D1D1D1"/>
</linearGradient>
<linearGradient id="paint10_linear_2159_757" x1="18.2638" y1="102.45" x2="61.7618" y2="145.762" gradientUnits="userSpaceOnUse">
<stop stop-color="#EBEBEB"/>
<stop offset="1" stop-color="#C5C5C7"/>
</linearGradient>
<linearGradient id="paint11_linear_2159_757" x1="188.784" y1="127.862" x2="199.948" y2="127.862" gradientUnits="userSpaceOnUse">
<stop stop-color="#A5A5A5"/>
<stop offset="1" stop-color="#BFBFBF"/>
</linearGradient>
<linearGradient id="paint12_linear_2159_757" x1="177.556" y1="140.367" x2="177.556" y2="153.603" gradientUnits="userSpaceOnUse">
<stop stop-color="#A5A5A5"/>
<stop offset="1" stop-color="#BFBFBF"/>
</linearGradient>
<linearGradient id="paint13_linear_2159_757" x1="177.415" y1="97.9281" x2="177.415" y2="128.96" gradientUnits="userSpaceOnUse">
<stop stop-color="#A5A5A5"/>
<stop offset="1" stop-color="#BFBFBF"/>
</linearGradient>
<linearGradient id="paint14_linear_2159_757" x1="152.105" y1="128.866" x2="179.067" y2="128.866" gradientUnits="userSpaceOnUse">
<stop stop-color="#A5A5A5"/>
<stop offset="1" stop-color="#BFBFBF"/>
</linearGradient>
<linearGradient id="paint15_linear_2159_757" x1="137.351" y1="141.423" x2="184.977" y2="77.8237" gradientUnits="userSpaceOnUse">
<stop stop-color="#A5A5A5"/>
<stop offset="1" stop-color="#D1D1D1"/>
</linearGradient>
<linearGradient id="paint16_linear_2159_757" x1="155.921" y1="102.438" x2="199.412" y2="145.778" gradientUnits="userSpaceOnUse">
<stop stop-color="#EBEBEB"/>
<stop offset="1" stop-color="#C5C5C7"/>
</linearGradient>
</defs>
</svg>
