<svg width="32" height="32" viewBox="0 0 32 32" fill="none" xmlns="http://www.w3.org/2000/svg">
<rect opacity="0.1" width="32" height="32" rx="12" fill="white"/>
<path fill-rule="evenodd" clip-rule="evenodd" d="M11.427 11C11.7219 8.74279 13.6568 7 16 7C18.3432 7 20.2781 8.74285 20.573 11L21.1044 11C21.903 11 22.5653 11 23.0851 11.0724C23.6315 11.1485 24.1224 11.3167 24.4958 11.7328C24.8692 12.1489 24.9825 12.6542 24.9981 13.2042C25.0129 13.7274 24.9397 14.3839 24.8515 15.1756L24.6045 17.3925C24.4201 19.0487 24.2751 20.3496 24.029 21.3606C23.7768 22.397 23.4016 23.2057 22.705 23.8276C22.0078 24.45 21.1564 24.7323 20.0901 24.8678C19.0491 25 17.7272 25 16.0429 25H15.9571C14.2729 25 12.9509 25 11.9099 24.8678C10.8436 24.7323 9.99223 24.45 9.295 23.8276C8.59844 23.2057 8.22324 22.397 7.97097 21.3606C7.72485 20.3496 7.57995 19.0487 7.39545 17.3924L7.1485 15.1756C7.06028 14.384 6.98713 13.7275 7.00191 13.2042C7.01745 12.6542 7.13077 12.1489 7.50416 11.7328C7.87755 11.3167 8.36853 11.1485 8.91493 11.0724C9.43468 11 10.0969 11 10.8956 11L11.427 11ZM19.3559 11C19.0719 9.40852 17.6774 8.2 16 8.2C14.3226 8.2 12.928 9.40857 12.644 11H19.3559Z" fill="white"/>
</svg>
