<svg width="32" height="32" viewBox="0 0 32 32" fill="none" xmlns="http://www.w3.org/2000/svg">
<rect opacity="0.1" width="32" height="32" rx="12" fill="white"/>
<path fill-rule="evenodd" clip-rule="evenodd" d="M25.455 10.6843C26 11.6962 26 13.0208 26 15.67V16.7904C26 18.3884 26 19.1874 25.798 19.8392C25.3188 21.3851 24.041 22.5941 22.4069 23.0474C21.7179 23.2385 20.8734 23.2385 19.1842 23.2385H18.6354L18.5703 23.2386C17.5501 23.2448 16.5562 23.5461 15.7222 24.1021L15.6692 24.1378L13.0585 25.902C12.1635 26.5068 10.9874 25.6334 11.3959 24.6673C11.6852 23.9829 11.1525 23.2385 10.3734 23.2385H9.77166C7.68863 23.2385 6 21.6409 6 19.6703V15.67C6 13.0208 6 11.6962 6.54497 10.6843C7.02433 9.79428 7.78924 9.07064 8.73005 8.61713C9.79961 8.10156 11.1997 8.10156 14 8.10156H18C20.8003 8.10156 22.2004 8.10156 23.27 8.61713C24.2108 9.07064 24.9757 9.79428 25.455 10.6843ZM13 15.67C13 16.1925 12.5523 16.6161 12 16.6161C11.4477 16.6161 11 16.1925 11 15.67C11 15.1475 11.4477 14.724 12 14.724C12.5523 14.724 13 15.1475 13 15.67ZM17 15.67C17 16.1925 16.5523 16.6161 16 16.6161C15.4477 16.6161 15 16.1925 15 15.67C15 15.1475 15.4477 14.724 16 14.724C16.5523 14.724 17 15.1475 17 15.67ZM20 16.6161C20.5523 16.6161 21 16.1925 21 15.67C21 15.1475 20.5523 14.724 20 14.724C19.4477 14.724 19 15.1475 19 15.67C19 16.1925 19.4477 16.6161 20 16.6161Z" fill="white"/>
</svg>
