<svg width="66" height="24" viewBox="0 0 66 24" fill="none" xmlns="http://www.w3.org/2000/svg">
<rect width="66" height="24" rx="4" fill="white"/>
<path d="M19.4998 9.21248L17.9794 10.7328L17.9044 10.8078L17.4205 11.2917L17.0596 11.6526L16.5757 12.1365L16.5006 12.2116L16.2899 12.4224L16.2148 12.4974L15.5025 13.2097L15.4275 13.2847C15.2135 13.4987 14.9771 13.6744 14.7264 13.8117C14.5987 13.882 14.4693 13.9411 14.3368 13.9922C14.0397 14.1072 13.7299 14.1727 13.4169 14.1934C13.2253 14.2062 13.0304 14.2014 12.8388 14.1774C12.4252 14.1279 12.0196 13.997 11.6491 13.7814C11.491 13.6904 11.3281 13.5946 11.1939 13.4604C11.1939 13.4604 11.1934 13.4604 11.1923 13.4604C11.1636 13.4317 11.1332 13.4029 11.1045 13.3726L8.33217 10.6034L8.27308 10.5443C8.22517 10.4916 8.18205 10.4326 8.14532 10.3703C8.0527 10.2138 8 10.0333 8 9.83689C8 9.80655 8 9.77621 8.00319 9.74586C8.00639 9.70115 8.01437 9.65803 8.02236 9.61491C8.02555 9.59894 8.03034 9.58138 8.03354 9.56541C8.03513 9.55902 8.03673 9.55103 8.03992 9.54465C8.07985 9.41529 8.14373 9.29233 8.23156 9.18213C8.25551 9.15339 8.27947 9.12624 8.30662 9.09909L8.35612 9.05118L11.3073 6.09999L13.0975 4.31298C13.4968 3.91374 14.1308 3.89618 14.5492 4.26188L19.4998 9.21248Z" fill="#005BAA"/>
<path d="M14.1128 15.8574C13.8749 15.8574 13.6401 15.8047 13.4165 15.7025L12.8496 15.1372L12.7107 14.9998L12.6867 14.9759L12.4232 14.7124L11.1025 13.3757C11.1313 13.4061 11.1616 13.4364 11.1904 13.4636C11.3245 13.5977 11.489 13.6935 11.6487 13.7862C12.0192 14.0001 12.4248 14.1327 12.8384 14.1822C13.0301 14.2062 13.2249 14.2109 13.4165 14.1982C13.7295 14.179 14.041 14.1119 14.3364 13.997C14.4689 13.9459 14.5999 13.8852 14.7261 13.8165C14.9768 13.6776 15.2131 13.5019 15.4271 13.2895L15.5022 13.2144L16.2144 12.5022L16.2895 12.4271L16.5003 12.2163L16.5753 12.1413L17.0592 11.6574L17.4201 11.2965L17.904 10.8126L17.9791 10.7375L21.0437 7.67297L22.3084 6.30277C22.3084 6.30277 22.3132 6.29798 22.3164 6.29479L22.3851 6.22772C22.7716 5.84125 23.3976 5.84125 23.7824 6.22772L24.4739 6.9192L24.4963 6.94156C24.1897 6.92719 23.8815 7.03738 23.6499 7.26415L21.3072 9.56857L21.2832 9.59731L17.2077 13.6089L17.2014 13.6041L15.7002 15.0781L15.6906 15.0893C15.6906 15.0893 15.6539 15.1308 15.5996 15.1835C15.4814 15.2985 15.2339 15.5157 14.9033 15.6722C14.7532 15.7424 14.6015 15.7935 14.4498 15.8255C14.3603 15.843 14.2693 15.8542 14.1783 15.859H14.1096L14.1128 15.8574Z" fill="#ED1C24"/>
<path d="M28.223 12.0647L28.1479 12.1398L24.8279 15.5094L21.3417 19.0482C21.2299 19.16 21.1149 19.2606 20.9919 19.3501C20.9887 19.3533 20.9824 19.3581 20.9776 19.3613C20.9616 19.3724 20.944 19.3852 20.9265 19.398C20.9249 19.3996 20.9233 19.4012 20.9201 19.4028C20.3947 19.7781 19.7495 20 19.0548 20C18.1957 20 17.4163 19.6631 16.8398 19.1153C16.8398 19.1153 16.8393 19.1148 16.8382 19.1137C16.8111 19.0914 16.7855 19.069 16.76 19.0451L16.1611 18.4462L14.4763 16.7614L13.9142 16.1993L13.8359 16.121C13.927 16.1354 14.0196 16.1434 14.1122 16.1434H14.1905C14.2975 16.1386 14.4045 16.1258 14.5099 16.1034C14.6823 16.0683 14.8564 16.0092 15.0273 15.9278C15.3962 15.7537 15.6709 15.5126 15.8018 15.3848C15.8529 15.3353 15.8912 15.2922 15.9072 15.273L17.2023 14.0002L17.2071 14.0066L21.6627 9.62295L21.6866 9.59421L23.8505 7.46545C24.1412 7.18119 24.5963 7.14287 24.9269 7.37123L25.4395 7.88386L28.2214 10.6658C28.2454 10.6897 28.2693 10.7153 28.2917 10.7424C28.6063 11.1321 28.5823 11.7038 28.2214 12.0647H28.223Z" fill="#ED1C24"/>
<path d="M17.4691 8.37565C17.3908 8.4539 17.2615 8.45071 17.1832 8.37246C15.8705 7.04857 13.7258 7.04219 12.4019 8.35329C11.0796 9.666 11.0716 11.8107 12.3843 13.1346L13.4128 14.171C13.4128 14.171 13.4272 14.1854 13.4304 14.1934C13.4256 14.1934 13.4208 14.1934 13.416 14.1934C13.2291 14.2062 13.0407 14.2014 12.8539 14.179L12.0985 13.4173C10.6293 11.9369 10.6373 9.53505 12.1177 8.06584C13.5996 6.59663 15.9999 6.60621 17.4691 8.0866L17.4723 8.08979C17.5505 8.16805 17.5489 8.2958 17.4691 8.37405V8.37565Z" fill="#009EDB"/>
<path d="M19.0403 9.67075L18.7545 9.95661L18.253 9.45197C18.1748 9.37212 18.1748 9.24436 18.253 9.16611C18.3329 9.08786 18.459 9.08786 18.5389 9.16611L19.0387 9.66915L19.0403 9.67075Z" fill="#009EDB"/>
<path d="M14.7328 13.8085C14.7328 13.8085 14.7264 13.8117 14.7232 13.8133C14.5987 13.8819 14.4725 13.941 14.3432 13.9905L12.9426 12.5788C12.0659 11.6957 11.9413 10.3127 12.644 9.28906C12.7063 9.19803 12.8324 9.17408 12.9251 9.23636C13.0177 9.29864 13.04 9.4248 12.9778 9.51742C12.3837 10.3814 12.4907 11.5488 13.2301 12.293L14.7328 13.8069V13.8085Z" fill="#009EDB"/>
<path d="M18.1957 10.5155L18.1893 10.5219L17.9785 10.7327L17.9098 10.7998L16.3352 9.21241C15.7507 8.62313 14.8964 8.41713 14.1059 8.67264C14.0005 8.70777 13.8871 8.64869 13.852 8.54329C13.8168 8.43629 13.8759 8.3229 13.9813 8.28777C14.9171 7.98435 15.928 8.23028 16.6211 8.92656L18.1957 10.5139V10.5155Z" fill="#009EDB"/>
<path d="M17.3519 11.3603L17.066 11.6462L15.4882 10.0556C15.1034 9.66592 14.4726 9.66432 14.0861 10.0492C13.698 10.4357 13.6948 11.0649 14.0813 11.4513L15.0986 12.4766C15.1768 12.5548 15.1768 12.6826 15.0986 12.7624C15.0203 12.8407 14.8926 12.8407 14.8127 12.7624L13.7954 11.7372C13.2541 11.191 13.2573 10.3063 13.8034 9.76333C14.3496 9.22036 15.2359 9.22515 15.7773 9.77132L17.3551 11.3619L17.3519 11.3603Z" fill="#009EDB"/>
<path d="M16.5082 12.2035L16.5018 12.2099L16.291 12.4207L16.2223 12.4893L14.6397 10.8956C14.5615 10.8173 14.5615 10.6896 14.6397 10.6097C14.7196 10.5315 14.8473 10.5315 14.9256 10.6097L16.5066 12.2019L16.5082 12.2035Z" fill="#009EDB"/>
<path d="M35.9088 16.9769C36.0605 16.9769 36.1723 16.9514 36.2458 16.8987C36.3192 16.846 36.3671 16.7661 36.3911 16.6591C36.4055 16.5921 36.3975 16.5346 36.3671 16.4882C36.3384 16.4419 36.2729 16.3844 36.1707 16.3174L35.7683 16.0395C35.6772 15.9756 35.607 15.9101 35.5591 15.8431C35.5112 15.776 35.484 15.7057 35.4744 15.6323C35.4664 15.5588 35.4712 15.4806 35.4888 15.3959C35.5319 15.1883 35.6341 15.0254 35.7954 14.9073C35.9567 14.7891 36.1851 14.7284 36.4837 14.7284C36.6003 14.7284 36.7121 14.7428 36.8175 14.7715C36.9245 14.8003 37.0043 14.8322 37.057 14.8657C37.0794 14.8801 37.0969 14.8945 37.1065 14.9073C37.1161 14.92 37.1193 14.9376 37.1145 14.96L37.0634 15.1979C37.0506 15.2554 37.0171 15.273 36.9644 15.2506C36.9053 15.2266 36.8207 15.2027 36.7057 15.1803C36.5923 15.158 36.4885 15.1468 36.3959 15.1468C36.1499 15.1468 36.0094 15.2282 35.9759 15.3927C35.9631 15.4502 35.9727 15.4981 36.003 15.5365C36.0334 15.5748 36.0988 15.6291 36.1979 15.6978L36.5668 15.9485C36.6738 16.0219 36.7552 16.0954 36.8079 16.1689C36.8622 16.2423 36.8941 16.3174 36.9053 16.3956C36.9165 16.4723 36.9117 16.5617 36.8909 16.6607C36.8638 16.7901 36.8079 16.9098 36.7265 17.02C36.6434 17.1302 36.5284 17.2213 36.3783 17.2899C36.2282 17.3602 36.0461 17.3953 35.8306 17.3953C35.6868 17.3953 35.5575 17.3794 35.4457 17.3458C35.3323 17.3123 35.2556 17.2819 35.2141 17.2548C35.1854 17.2356 35.1678 17.2197 35.1598 17.2101C35.1518 17.1989 35.1502 17.1829 35.155 17.1606L35.2061 16.9226C35.2173 16.8683 35.2509 16.8508 35.3052 16.8699C35.5175 16.9434 35.7172 16.9801 35.904 16.9801L35.9088 16.9769Z" fill="#009EDB"/>
<path d="M37.9051 17.0009C38.036 17.0009 38.1925 16.9738 38.3746 16.9211C38.4273 16.9067 38.448 16.9259 38.4369 16.977L38.3905 17.2021C38.3842 17.2245 38.3746 17.2421 38.3618 17.2548C38.3474 17.2676 38.3267 17.2804 38.2963 17.2932C38.1606 17.3602 38.0041 17.3938 37.8236 17.3938C37.6671 17.3938 37.5346 17.365 37.4276 17.3059C37.3206 17.2468 37.2455 17.1542 37.204 17.0265C37.1625 16.8987 37.1625 16.7374 37.204 16.5426L37.2743 16.2152C37.3142 16.0236 37.3813 15.8639 37.4771 15.7361C37.5729 15.6084 37.6879 15.5141 37.8204 15.4535C37.9546 15.3928 38.0999 15.3624 38.2564 15.3624C38.4369 15.3624 38.5806 15.396 38.6876 15.463C38.7115 15.4758 38.7275 15.4886 38.7371 15.5014C38.7451 15.5141 38.7483 15.5317 38.7435 15.5541L38.6956 15.7792C38.6844 15.8303 38.6556 15.8495 38.6093 15.8351C38.5375 15.8096 38.472 15.7904 38.4113 15.776C38.3506 15.7617 38.2788 15.7553 38.1893 15.7553C37.953 15.7553 37.8013 15.9086 37.7358 16.2152L37.6655 16.5426C37.632 16.7087 37.6384 16.8268 37.6879 16.8971C37.7374 16.9674 37.8092 17.0025 37.9051 17.0025V17.0009Z" fill="#009EDB"/>
<path d="M39.7376 15.7457C39.554 15.7457 39.3607 15.776 39.1579 15.8367C39.1052 15.8511 39.0845 15.8319 39.0956 15.7808L39.1403 15.5668C39.1451 15.5445 39.1547 15.5269 39.1691 15.5141C39.1835 15.4998 39.2058 15.4886 39.2346 15.4758C39.3128 15.4455 39.407 15.4183 39.5172 15.396C39.6274 15.3736 39.7472 15.3624 39.8718 15.3624C40.0235 15.3624 40.1464 15.3864 40.2438 15.4359C40.3413 15.4854 40.4067 15.5605 40.4435 15.6627C40.4802 15.7649 40.4818 15.8878 40.4515 16.0332L40.1959 17.2309C40.1911 17.2564 40.1848 17.274 40.1768 17.2836C40.1688 17.2932 40.1528 17.3011 40.1305 17.3075C40.0203 17.3363 39.9149 17.357 39.8143 17.373C39.7137 17.3874 39.5923 17.3954 39.4502 17.3954C39.2585 17.3954 39.1052 17.3746 38.9918 17.3347C38.8784 17.2948 38.8018 17.2309 38.7619 17.1446C38.7219 17.0584 38.7171 16.945 38.7459 16.8045L38.7491 16.7869C38.7714 16.6831 38.805 16.5937 38.8497 16.5202C38.8944 16.4468 38.9551 16.3861 39.0302 16.335C39.1068 16.2839 39.1994 16.2471 39.3096 16.2232C39.4198 16.1992 39.5508 16.1865 39.7057 16.1865H39.9532L39.9851 16.0316C40.0075 15.9214 39.9995 15.8463 39.9596 15.8064C39.9197 15.7665 39.8446 15.7457 39.7344 15.7457H39.7376ZM39.7791 17.0137L39.8893 16.4947H39.6418C39.5348 16.4947 39.4549 16.5043 39.4007 16.5234C39.3464 16.5426 39.3064 16.5713 39.2809 16.6113C39.2569 16.6512 39.2362 16.7055 39.2218 16.7773L39.217 16.7981C39.2026 16.8652 39.2026 16.9147 39.217 16.9498C39.2314 16.9849 39.2617 17.0089 39.308 17.0233C39.3543 17.0376 39.4278 17.044 39.5252 17.044C39.6226 17.044 39.7089 17.0344 39.7791 17.0153V17.0137Z" fill="#009EDB"/>
<path d="M42.2009 17.2915C42.1977 17.309 42.1865 17.3266 42.1689 17.3426C42.1514 17.3585 42.1338 17.3665 42.1146 17.3665H41.7904C41.7713 17.3665 41.7569 17.3585 41.7473 17.3426C41.7377 17.3266 41.7345 17.3106 41.7377 17.2915L41.9853 16.1321C42.0044 16.0394 42.0092 15.966 41.9996 15.9101C41.9901 15.8558 41.9629 15.8159 41.9166 15.7903C41.8703 15.7648 41.8032 15.752 41.7138 15.752C41.6068 15.752 41.4886 15.7648 41.3609 15.7903L41.0415 17.2915C41.0383 17.3122 41.0287 17.3298 41.0111 17.3442C40.9952 17.3585 40.976 17.3649 40.9552 17.3649H40.6326C40.6119 17.3649 40.5975 17.3569 40.5879 17.341C40.5783 17.325 40.5752 17.309 40.5783 17.2899L40.952 15.5332C40.9584 15.4997 40.9872 15.4757 41.0383 15.4629C41.1612 15.431 41.2922 15.4055 41.4311 15.3863C41.5701 15.3671 41.6962 15.3575 41.8112 15.3575C42.0875 15.3575 42.2759 15.4182 42.3797 15.5396C42.4819 15.661 42.5059 15.8574 42.45 16.1257L42.2009 17.2883V17.2915Z" fill="#009EDB"/>
<path d="M44.6141 17.3058C44.6077 17.341 44.5806 17.3617 44.5359 17.3697C44.4336 17.3857 44.341 17.3937 44.2548 17.3937C44.1159 17.3937 44.0089 17.3793 43.9354 17.3521C43.8619 17.3234 43.8156 17.2707 43.7949 17.1893C43.7741 17.1094 43.7805 16.9912 43.814 16.8363L44.0472 15.7328L43.7677 15.6833C43.7214 15.6753 43.7038 15.6514 43.7118 15.6131L43.7454 15.455C43.7486 15.4358 43.7581 15.4182 43.7741 15.4054C43.7901 15.3911 43.8076 15.3847 43.8284 15.3847H44.1206L44.1829 15.0972C44.1909 15.0589 44.2197 15.0349 44.2692 15.027L44.6077 14.9711H44.6237C44.6604 14.9711 44.6748 14.9886 44.6668 15.0238L44.5902 15.3863H44.9447C44.967 15.3863 44.983 15.3927 44.9926 15.4054C45.0022 15.4182 45.0054 15.4358 45.0006 15.4565L44.9559 15.6642C44.9511 15.6833 44.9415 15.7009 44.9239 15.7137C44.9079 15.728 44.8888 15.7344 44.8696 15.7344H44.5151L44.2819 16.8379C44.2644 16.9242 44.2596 16.9785 44.2692 17.0008C44.2787 17.0232 44.3139 17.0328 44.3762 17.0328H44.6013C44.6508 17.0328 44.6716 17.0503 44.6652 17.0855L44.6173 17.3074L44.6141 17.3058Z" fill="#009EDB"/>
<path d="M46.6657 16.5187C46.6306 16.6863 46.5667 16.8364 46.4725 16.9706C46.3798 17.1047 46.2617 17.2085 46.1211 17.282C45.9806 17.3571 45.8193 17.3938 45.6404 17.3938C45.4616 17.3938 45.3195 17.3571 45.2077 17.282C45.0959 17.2069 45.0224 17.1031 44.9873 16.9706C44.9522 16.8364 44.9522 16.6863 44.9873 16.5187L45.048 16.236C45.0831 16.0683 45.147 15.9182 45.2396 15.784C45.3322 15.6499 45.4504 15.5461 45.5925 15.471C45.7363 15.396 45.896 15.3593 46.0732 15.3593C46.2505 15.3593 46.3974 15.396 46.5076 15.471C46.6178 15.5461 46.6897 15.6499 46.7264 15.784C46.7631 15.9182 46.7631 16.0683 46.7264 16.236L46.6657 16.5187ZM46.2026 16.5187L46.2633 16.236C46.2936 16.0891 46.2872 15.9741 46.2393 15.8878C46.193 15.8032 46.1084 15.7601 45.987 15.7601C45.8656 15.7601 45.7634 15.8032 45.6804 15.8878C45.5973 15.9725 45.5398 16.0891 45.5095 16.236L45.4488 16.5187C45.4185 16.6656 45.4265 16.7806 45.4728 16.8668C45.5191 16.9514 45.6037 16.9945 45.7235 16.9945C45.8433 16.9945 45.9471 16.9514 46.0301 16.8668C46.1131 16.7822 46.1706 16.6656 46.201 16.5187H46.2026Z" fill="#009EDB"/>
<path d="M49.9278 15.57C49.8671 15.8591 49.7298 16.0683 49.5142 16.1992C49.2986 16.3286 49.0415 16.394 48.7397 16.394C48.7221 16.394 48.6806 16.394 48.6183 16.3892C48.556 16.3861 48.5161 16.3845 48.4969 16.3829C48.4778 16.3829 48.4554 16.3813 48.4314 16.3797L48.2382 17.2963C48.2334 17.3171 48.2238 17.3331 48.2079 17.3474C48.1919 17.3602 48.1743 17.3666 48.1568 17.3666H47.8054C47.7879 17.3666 47.7735 17.3602 47.7623 17.3458C47.7495 17.3315 47.7463 17.3155 47.7511 17.2963L48.2638 14.8785C48.2702 14.845 48.2845 14.821 48.3069 14.8051C48.3292 14.7891 48.3596 14.7795 48.3979 14.7731C48.5975 14.7428 48.8291 14.7268 49.0958 14.7268C49.3976 14.7268 49.6292 14.7907 49.7873 14.9168C49.947 15.043 49.9965 15.2506 49.9342 15.5381L49.9278 15.5684V15.57ZM49.4423 15.57L49.4487 15.5397C49.4791 15.3927 49.4599 15.2889 49.388 15.2251C49.3162 15.1628 49.19 15.1308 49.0095 15.1308C48.8962 15.1308 48.7908 15.1356 48.6933 15.1468L48.5145 15.982C48.6263 15.9884 48.7301 15.9916 48.8243 15.9916C48.9505 15.9916 49.0543 15.9772 49.1373 15.9469C49.2203 15.9165 49.2858 15.8702 49.3353 15.8095C49.3848 15.7473 49.42 15.669 49.4407 15.5716L49.4423 15.57Z" fill="#009EDB"/>
<path d="M50.6927 15.7457C50.509 15.7457 50.3158 15.776 50.113 15.8367C50.0603 15.8511 50.0395 15.8319 50.0507 15.7808L50.0954 15.5668C50.1002 15.5445 50.1098 15.5269 50.1242 15.5141C50.1385 15.4998 50.1609 15.4886 50.1896 15.4758C50.2679 15.4455 50.3621 15.4183 50.4723 15.396C50.5825 15.3736 50.7023 15.3624 50.8268 15.3624C50.9785 15.3624 51.1015 15.3864 51.1989 15.4359C51.2963 15.4854 51.3618 15.5605 51.3985 15.6627C51.4353 15.7649 51.4369 15.8878 51.4065 16.0332L51.151 17.2309C51.1462 17.2564 51.1398 17.274 51.1319 17.2836C51.1239 17.2932 51.1079 17.3011 51.0855 17.3075C50.9754 17.3363 50.87 17.357 50.7693 17.373C50.6687 17.3874 50.5474 17.3954 50.4052 17.3954C50.2136 17.3954 50.0603 17.3746 49.9469 17.3347C49.8335 17.2948 49.7569 17.2309 49.7169 17.1446C49.677 17.0584 49.6722 16.945 49.701 16.8045L49.7042 16.7869C49.7265 16.6831 49.7601 16.5937 49.8048 16.5202C49.8495 16.4468 49.9102 16.3861 49.9852 16.335C50.0619 16.2839 50.1545 16.2471 50.2647 16.2232C50.3749 16.1992 50.5058 16.1865 50.6608 16.1865H50.9083L50.9402 16.0316C50.9626 15.9214 50.9546 15.8463 50.9147 15.8064C50.8747 15.7665 50.7997 15.7457 50.6895 15.7457H50.6927ZM50.7342 17.0137L50.8444 16.4947H50.5969C50.4899 16.4947 50.41 16.5043 50.3557 16.5234C50.3014 16.5426 50.2615 16.5713 50.236 16.6113C50.212 16.6512 50.1912 16.7055 50.1769 16.7773L50.1721 16.7981C50.1577 16.8652 50.1577 16.9147 50.1721 16.9498C50.1865 16.9849 50.2168 17.0089 50.2631 17.0233C50.3094 17.0376 50.3829 17.044 50.4803 17.044C50.5777 17.044 50.6639 17.0344 50.7342 17.0153V17.0137Z" fill="#009EDB"/>
<path d="M53.5961 15.4439C53.5945 15.4535 53.5913 15.4599 53.5881 15.4646L52.5645 17.5167C52.4974 17.6541 52.4303 17.7611 52.3633 17.8393C52.2962 17.9176 52.2131 17.9751 52.1141 18.0118C52.0151 18.0501 51.8874 18.0677 51.7325 18.0677C51.6734 18.0677 51.6079 18.0629 51.5376 18.0533C51.4674 18.0437 51.4115 18.0326 51.3715 18.0214C51.3252 18.0086 51.3045 17.9894 51.3093 17.9607L51.3572 17.7355C51.3604 17.718 51.37 17.7036 51.3875 17.6908C51.4035 17.678 51.4226 17.6717 51.4418 17.6717H51.4482C51.4785 17.6717 51.544 17.6764 51.6414 17.6844C51.7388 17.6924 51.8059 17.694 51.8395 17.694C51.8906 17.694 51.9353 17.6876 51.9736 17.6748C52.0119 17.6621 52.0455 17.6397 52.0758 17.6078C52.1062 17.5758 52.1365 17.5279 52.1652 17.4672L52.2147 17.3618H52.1636C52.1237 17.3618 52.087 17.3555 52.0534 17.3427C52.0199 17.3299 51.9912 17.3028 51.9656 17.2596C51.9417 17.2165 51.9257 17.1542 51.9177 17.0696L51.8011 15.4599C51.8011 15.4599 51.8011 15.4455 51.8027 15.4359C51.8107 15.3976 51.8363 15.38 51.881 15.38H52.2355C52.2515 15.38 52.2642 15.3864 52.2738 15.3992C52.2834 15.4119 52.2882 15.4263 52.2882 15.4439L52.3393 16.8732C52.3393 16.9243 52.3489 16.9498 52.3697 16.9498H52.4016L53.1011 15.4407C53.1186 15.4008 53.1458 15.38 53.1857 15.38H53.545C53.561 15.38 53.5738 15.3864 53.5849 15.3976C53.5945 15.4103 53.5993 15.4231 53.5945 15.4391L53.5961 15.4439Z" fill="#009EDB"/>
<path fill-rule="evenodd" clip-rule="evenodd" d="M50.1665 11.3876L48.33 8.75425L48.1431 8.58337H49.9541L51.1806 10.5748L51.2796 10.4949L52.0206 9.39304C52.2026 9.12155 52.1787 8.80695 51.9184 8.58497H53.6287L51.6517 11.3892V13.4238L51.9998 13.839H49.8742L50.1745 13.4302C50.1745 12.7515 50.1505 12.0664 50.1681 11.3892L50.1665 11.3876ZM45.1792 8.58337C45.3261 8.78459 45.3692 8.85486 45.3852 9.03532C45.3964 9.15988 45.3884 9.23174 45.3484 9.34832L43.9814 13.3104C43.9176 13.4733 43.785 13.6537 43.5934 13.8278H45.0849C44.9748 13.7304 44.9029 13.6122 44.8773 13.4733C44.8534 13.3455 44.855 13.2992 44.8821 13.1762L45.1856 12.2356H46.9199L47.1897 12.9607C47.2185 13.0373 47.2345 13.1076 47.2408 13.189C47.2648 13.4605 47.1786 13.6825 46.963 13.8406H49.3009C49.071 13.6362 48.8618 13.4222 48.742 13.1635L47.0348 8.58657H45.1776L45.1792 8.58337ZM46.6659 11.5521H45.4251L46.0272 9.83699L46.6659 11.5521ZM40.4521 8.58816L41.6259 8.58337H43.052C43.8361 8.58337 44.4781 9.22535 44.4781 10.0095V10.1851C44.4781 10.9692 43.8361 11.5681 43.052 11.5921L42.402 11.6112C42.9258 11.3701 43.1446 10.7632 43.0792 10.2155C43.0265 9.77631 42.8013 9.35471 42.4244 9.34672L42.1865 9.34193V13.2513C42.1865 13.328 42.1992 13.3583 42.2392 13.4254C42.303 13.5324 42.3877 13.6378 42.4755 13.7448C42.4979 13.7719 42.5218 13.8007 42.5442 13.8278H40.5208C40.5512 13.7911 40.5815 13.7528 40.6087 13.7144C40.6693 13.6314 40.7236 13.542 40.7652 13.4429C40.7907 13.3791 40.8051 13.3328 40.8051 13.2641V9.06406C40.7971 8.84528 40.5799 8.72071 40.4521 8.58657V8.58816Z" fill="#005BAA"/>
<path fill-rule="evenodd" clip-rule="evenodd" d="M29.4844 8.55934H31.1181L32.4883 12.4895L33.6509 9.23485C33.6716 9.10869 33.6541 9.06717 33.6061 8.95858C33.5423 8.82603 33.4736 8.69827 33.4081 8.56572H34.6282C34.5563 8.83082 34.4493 9.12306 34.3567 9.39136L32.7821 13.9683C32.3525 13.882 31.8734 13.7127 31.5029 13.3614C31.2235 13.0963 31.1245 12.7961 30.9871 12.4384L29.6696 8.95059C29.6169 8.81325 29.553 8.69029 29.486 8.56093L29.4844 8.55934ZM36.0048 10.4006V13.2081C36.0048 13.3215 36.0303 13.3422 36.1006 13.4333L36.4216 13.8533H34.8837C34.97 13.7207 35.0562 13.5898 35.144 13.4572C35.2111 13.3486 35.2398 13.3119 35.2398 13.1841V9.2604L34.8071 8.55774H36.3992L38.9783 11.8794V9.23166C38.9783 9.1055 38.9528 9.06398 38.8857 8.95538C38.7995 8.82284 38.7084 8.69508 38.6222 8.56253H40.1585L39.8375 8.98253C39.7672 9.07356 39.7417 9.09432 39.7417 9.2077V13.9858C39.1604 13.9092 38.619 13.767 38.1367 13.1506L36.0016 10.3974L36.0048 10.4006Z" fill="#ED1C24"/>
<path fill-rule="evenodd" clip-rule="evenodd" d="M53.5117 9.85285C53.5117 9.73947 53.5277 9.62768 53.558 9.52068C53.59 9.41528 53.6347 9.30988 53.697 9.20927C53.8104 9.01764 53.9732 8.86433 54.1856 8.75094C54.3996 8.63756 54.6456 8.58167 54.9298 8.58167C55.0448 8.58167 55.155 8.59444 55.254 8.62319C55.3546 8.65193 55.4536 8.69505 55.5542 8.75254C55.7411 8.86113 55.888 9.01285 55.9966 9.21087C56.0525 9.31467 56.0956 9.42327 56.126 9.53505C56.1547 9.64844 56.1691 9.76981 56.1691 9.90236C56.1691 10.0828 56.1291 10.2681 56.0509 10.4581C55.9711 10.6465 55.8593 10.8078 55.7107 10.9388L55.8944 11.1145C55.9679 11.1847 56.0461 11.2486 56.1275 11.3109C56.2106 11.3716 56.3016 11.4243 56.4022 11.469C56.5028 11.5153 56.6082 11.5424 56.7168 11.552C56.621 11.6319 56.5188 11.6926 56.4134 11.7357C56.3048 11.7788 56.1946 11.798 56.078 11.798C55.979 11.798 55.8784 11.7788 55.7778 11.7357C55.6756 11.6942 55.5798 11.6415 55.4904 11.5808C55.3945 11.5153 55.3083 11.4498 55.2317 11.3859L55.0272 11.2135C55.0129 11.2135 54.9953 11.2135 54.9713 11.2151C54.9474 11.2167 54.9202 11.2199 54.8883 11.2262L54.7653 11.2374C54.5306 11.2374 54.3166 11.1751 54.1234 11.0522C53.9317 10.9292 53.78 10.7631 53.6746 10.5523C53.6219 10.4485 53.5804 10.3383 53.5548 10.2217C53.5277 10.1036 53.5133 9.9822 53.5133 9.85445L53.5117 9.85285ZM54.2399 9.86083C54.2399 9.94228 54.2495 10.0269 54.2687 10.1132C54.2831 10.1738 54.3054 10.2521 54.3374 10.3447C54.3885 10.4916 54.4619 10.6146 54.5577 10.7072C54.6536 10.803 54.7717 10.8494 54.9123 10.8494C55.0943 10.8494 55.2285 10.7775 55.3147 10.6338C55.4009 10.49 55.4456 10.3064 55.4456 10.0812C55.4456 10.0237 55.4377 9.9295 55.4281 9.80494C55.4153 9.71072 55.3977 9.62448 55.3754 9.54783C55.353 9.46638 55.3291 9.39612 55.3003 9.33543C55.246 9.21247 55.1742 9.12144 55.0815 9.06075C54.9905 8.99847 54.8803 8.96653 54.7558 8.96653C54.6983 8.96653 54.644 8.97771 54.5945 8.99847C54.5466 9.01764 54.4986 9.04958 54.4571 9.0879C54.3821 9.15977 54.3262 9.25399 54.291 9.36577C54.2575 9.47916 54.2383 9.60372 54.2383 9.73627V9.85924L54.2399 9.86083ZM57.1257 9.88798C57.2071 9.87521 57.279 9.84646 57.3396 9.80494C57.4019 9.76182 57.4514 9.70433 57.4866 9.63407C57.5041 9.60053 57.5169 9.5654 57.5281 9.53026C57.5377 9.49353 57.5409 9.4568 57.5409 9.41848C57.5409 9.3019 57.5105 9.20448 57.445 9.12623C57.3828 9.04958 57.2854 9.00965 57.156 9.00965H57.1257V9.88798ZM57.1257 10.0908V10.8046C57.1257 10.9819 57.1815 11.1033 57.2917 11.1656V11.1815H56.2569V11.1656C56.3607 11.1065 56.415 10.9883 56.415 10.8094V9.06235C56.415 8.95695 56.4038 8.87231 56.3863 8.81322C56.3671 8.75254 56.324 8.69824 56.2569 8.65193V8.64395H57.5137C57.6542 8.64395 57.7804 8.6695 57.8906 8.7206C58.0024 8.7733 58.0902 8.84836 58.1541 8.95216C58.1876 9.00326 58.2116 9.06076 58.2276 9.12304C58.2451 9.18372 58.2547 9.25239 58.2547 9.32266C58.2547 9.41848 58.2244 9.52068 58.1605 9.63407C58.0998 9.74585 57.98 9.84646 57.8028 9.9327L58.301 10.7727C58.4192 10.9548 58.5278 11.0841 58.6252 11.1608L58.1876 11.1927L58.0774 11.1959H57.9752C57.8762 11.1959 57.7996 11.1799 57.7421 11.1448C57.6862 11.1129 57.6319 11.0474 57.584 10.9532L57.1257 10.0908Z" fill="#ED1C24"/>
</svg>
